<svg width="190" height="29" viewBox="0 0 190 29" fill="none" xmlns="http://www.w3.org/2000/svg">
<path d="M25.312 28H16.24L14.608 21.088C14.544 20.832 14.432 20.4 14.272 19.792C14.144 19.152 13.984 18.688 13.792 18.4C13.6 18.08 13.328 17.872 12.976 17.776C12.08 17.808 10.768 17.824 9.04 17.824V28H0.4V0.88C4.272 0.592 7.888 0.448 11.248 0.448C14.288 0.448 16.752 0.704 18.64 1.216C20.528 1.696 21.936 2.544 22.864 3.76C23.824 4.944 24.304 6.576 24.304 8.656C24.304 10.608 23.856 12.144 22.96 13.264C22.064 14.352 20.624 15.008 18.64 15.232V15.52C19.76 15.616 20.688 15.984 21.424 16.624C22.192 17.232 22.704 18.016 22.96 18.976L25.312 28ZM9.04 12.4C9.328 12.432 9.888 12.448 10.72 12.448C13.184 12.448 14.624 12.24 15.04 11.824C15.424 11.44 15.616 10.544 15.616 9.136C15.616 7.824 15.264 6.928 14.56 6.448C13.888 5.968 12.768 5.728 11.2 5.728C10.848 5.728 10.128 5.76 9.04 5.824V12.4ZM41.2038 22.24C42.0038 22.24 43.4918 22.16 45.6678 22C45.9558 22 46.4838 21.968 47.2518 21.904L47.9718 26.848C45.5078 28 42.3078 28.576 38.3718 28.576C34.6918 28.576 31.8598 27.648 29.8758 25.792C27.9238 23.936 26.9478 21.136 26.9478 17.392C26.9478 15.472 27.1878 13.616 27.6678 11.824C28.1798 10.032 28.7558 8.784 29.3958 8.08C30.0678 7.376 31.3158 6.768 33.1398 6.256C34.9638 5.744 36.7718 5.488 38.5638 5.488C41.4438 5.488 43.6038 6 45.0438 7.024C46.4838 8.048 47.4278 9.472 47.8758 11.296C48.3238 13.088 48.5478 15.504 48.5478 18.544C46.3718 18.672 44.2438 18.736 42.1638 18.736H35.3478C35.3478 19.76 35.5558 20.528 35.9718 21.04C36.4198 21.552 37.0438 21.888 37.8438 22.048C38.6438 22.176 39.7638 22.24 41.2038 22.24ZM35.8278 11.2C35.6358 11.296 35.4918 11.712 35.3958 12.448C35.2998 13.184 35.2358 14.016 35.2038 14.944H37.6998C39.2038 14.944 40.2918 14.928 40.9638 14.896C40.9638 13.36 40.7398 12.272 40.2918 11.632C39.8758 10.992 39.1398 10.672 38.0838 10.672C37.2198 10.672 36.4678 10.848 35.8278 11.2ZM69.2928 20.512C69.2928 23.36 68.3808 25.408 66.5568 26.656C64.7648 27.904 62.2048 28.528 58.8768 28.528C56.5408 28.528 53.8528 28.192 50.8128 27.52C50.8768 26.88 51.0208 25.968 51.2448 24.784C51.5008 23.568 51.7088 22.64 51.8688 22C53.0208 22.192 54.3008 22.352 55.7088 22.48C57.1168 22.576 58.3168 22.624 59.3088 22.624C60.1728 22.624 60.7008 22.576 60.8928 22.48C60.9248 22.448 60.9568 22.368 60.9888 22.24C61.0528 22.08 61.0848 21.92 61.0848 21.76C61.0848 21.12 60.6848 20.688 59.8848 20.464C59.6288 20.4 58.6528 20.128 56.9568 19.648C55.2608 19.168 53.8688 18.304 52.7808 17.056C51.7248 15.776 51.1968 14.192 51.1968 12.304C51.1968 11.312 51.4208 10.208 51.8688 8.992C52.3168 7.776 52.7968 7.008 53.3088 6.688C53.6928 6.432 54.6208 6.176 56.0928 5.92C57.5648 5.632 58.9248 5.488 60.1728 5.488C62.8288 5.488 65.5008 5.68 68.1888 6.064C68.1888 6.64 68.1088 7.616 67.9488 8.992C67.7888 10.336 67.6448 11.184 67.5168 11.536C64.7968 11.184 62.6048 11.008 60.9408 11.008C60.0768 11.008 59.5168 11.056 59.2608 11.152C59.1968 11.184 59.1328 11.28 59.0688 11.44C59.0048 11.568 58.9728 11.744 58.9728 11.968C58.9728 12.416 59.1168 12.736 59.4048 12.928C59.6928 13.152 60.4448 13.424 61.6608 13.744C63.1008 14.16 64.3328 14.592 65.3568 15.04C66.4128 15.488 67.3248 16.16 68.0928 17.056C68.8928 17.952 69.2928 19.104 69.2928 20.512ZM94.0949 5.92V28H87.4229L86.5109 24.304C84.2069 27.088 81.4549 28.48 78.2549 28.48C77.1029 28.48 76.0149 28.32 74.9909 28C73.9989 27.68 73.2469 27.216 72.7349 26.608C72.4469 26.256 72.2229 25.376 72.0629 23.968C71.9349 22.56 71.8709 20.416 71.8709 17.536V5.92H80.0789V17.44C80.0789 18.08 80.0949 18.832 80.1269 19.696C80.1589 20.56 80.2549 21.104 80.4149 21.328C80.6389 21.648 81.2789 21.808 82.3349 21.808L83.1029 21.76C83.9989 21.728 84.9269 21.52 85.8869 21.136V5.92H94.0949ZM111.807 28.624C107.039 28.624 103.455 27.504 101.055 25.264C98.6865 22.992 97.5025 19.36 97.5025 14.368C97.5025 9.472 98.8145 5.904 101.439 3.664C104.063 1.424 107.535 0.303999 111.855 0.303999C120.943 0.303999 125.487 4.832 125.487 13.888C125.487 18.464 124.367 22.064 122.127 24.688C119.919 27.312 116.479 28.624 111.807 28.624ZM111.615 22.96C112.511 22.96 113.263 22.816 113.871 22.528C114.479 22.208 114.959 21.664 115.311 20.896C115.983 19.584 116.319 17.44 116.319 14.464C116.319 11.552 115.983 9.44 115.311 8.128C114.639 6.784 113.407 6.08 111.615 6.016C110.943 6.016 110.239 6.096 109.503 6.256C108.799 6.384 108.351 6.576 108.159 6.832C107.775 7.28 107.471 8.24 107.247 9.712C107.055 11.152 106.959 12.736 106.959 14.464C106.959 17.152 107.215 19.12 107.727 20.368C108.079 21.296 108.575 21.968 109.215 22.384C109.855 22.768 110.655 22.96 111.615 22.96ZM140.346 0.495999C142.938 0.495999 145.13 0.735999 146.922 1.216C148.714 1.696 150.138 2.624 151.194 4C152.282 5.344 152.826 7.28 152.826 9.808C152.826 10.928 152.65 12.08 152.298 13.264C151.978 14.416 151.562 15.424 151.05 16.288C150.57 17.152 150.138 17.712 149.754 17.968C149.306 18.288 148.314 18.544 146.778 18.736C145.242 18.896 143.434 18.976 141.354 18.976C140.618 18.976 139.482 18.944 137.946 18.88V28H129.306V0.639997C132.666 0.543999 136.346 0.495999 140.346 0.495999ZM143.946 12.832C144.266 12.416 144.426 11.584 144.426 10.336C144.426 8.704 144.074 7.552 143.37 6.88C142.698 6.208 141.514 5.872 139.818 5.872C139.242 5.872 138.618 5.92 137.946 6.016V13.312C138.266 13.344 138.89 13.36 139.818 13.36C142.282 13.36 143.658 13.184 143.946 12.832ZM170.236 28H161.596V6.64H153.868V0.639997H177.964V6.64H170.236V28ZM180.776 0.639997H189.416V28H180.776V0.639997Z" fill="white"/>
</svg>
